<?xml version="1.0" encoding="UTF-8" standalone="no"?>
<!-- Created with Inkscape (http://www.inkscape.org/) -->

<svg
   width="210mm"
   height="148mm"
   viewBox="0 0 793.70081 559.37006"
   version="1.1"
   id="svg5"
   inkscape:version="1.2.1 (9c6d41e410, 2022-07-14)"
   sodipodi:docname="logo.svg"
   xmlns:inkscape="http://www.inkscape.org/namespaces/inkscape"
   xmlns:sodipodi="http://sodipodi.sourceforge.net/DTD/sodipodi-0.dtd"
   xmlns="http://www.w3.org/2000/svg"
   xmlns:svg="http://www.w3.org/2000/svg">
  <sodipodi:namedview
     id="namedview7"
     pagecolor="#ffffff"
     bordercolor="#666666"
     borderopacity="1.0"
     inkscape:showpageshadow="2"
     inkscape:pageopacity="0.0"
     inkscape:pagecheckerboard="0"
     inkscape:deskcolor="#d1d1d1"
     inkscape:document-units="mm"
     showgrid="false"
     inkscape:zoom="0.59666116"
     inkscape:cx="-78.771676"
     inkscape:cy="501.95994"
     inkscape:window-width="1920"
     inkscape:window-height="1045"
     inkscape:window-x="1920"
     inkscape:window-y="0"
     inkscape:window-maximized="1"
     inkscape:current-layer="layer1" />
  <defs
     id="defs2">
    <inkscape:path-effect
       effect="bspline"
       id="path-effect4409"
       is_visible="true"
       lpeversion="1"
       weight="33.333333"
       steps="2"
       helper_size="0"
       apply_no_weight="true"
       apply_with_weight="true"
       only_selected="false" />
    <inkscape:path-effect
       effect="bspline"
       id="path-effect4351"
       is_visible="true"
       lpeversion="1"
       weight="33.333333"
       steps="2"
       helper_size="0"
       apply_no_weight="true"
       apply_with_weight="true"
       only_selected="false" />
    <inkscape:path-effect
       effect="bspline"
       id="path-effect4344"
       is_visible="true"
       lpeversion="1"
       weight="33.333333"
       steps="2"
       helper_size="0"
       apply_no_weight="true"
       apply_with_weight="true"
       only_selected="false" />
    <inkscape:path-effect
       effect="bspline"
       id="path-effect4128"
       is_visible="true"
       lpeversion="1"
       weight="33.333333"
       steps="2"
       helper_size="0"
       apply_no_weight="true"
       apply_with_weight="true"
       only_selected="false" />
    <inkscape:path-effect
       effect="bspline"
       id="path-effect4065"
       is_visible="true"
       lpeversion="1"
       weight="33.333333"
       steps="2"
       helper_size="0"
       apply_no_weight="true"
       apply_with_weight="true"
       only_selected="false" />
    <inkscape:path-effect
       effect="bspline"
       id="path-effect3997"
       is_visible="true"
       lpeversion="1"
       weight="33.333333"
       steps="2"
       helper_size="0"
       apply_no_weight="true"
       apply_with_weight="true"
       only_selected="false" />
    <inkscape:path-effect
       effect="bspline"
       id="path-effect3993"
       is_visible="true"
       lpeversion="1"
       weight="33.333333"
       steps="2"
       helper_size="0"
       apply_no_weight="true"
       apply_with_weight="true"
       only_selected="false" />
    <inkscape:path-effect
       effect="bspline"
       id="path-effect2295"
       is_visible="true"
       lpeversion="1"
       weight="33.333333"
       steps="2"
       helper_size="0"
       apply_no_weight="true"
       apply_with_weight="true"
       only_selected="false" />
    <inkscape:path-effect
       effect="bspline"
       id="path-effect1903"
       is_visible="true"
       lpeversion="1"
       weight="33.333333"
       steps="2"
       helper_size="0"
       apply_no_weight="true"
       apply_with_weight="true"
       only_selected="false" />
    <inkscape:path-effect
       effect="bspline"
       id="path-effect1620"
       is_visible="true"
       lpeversion="1"
       weight="33.333333"
       steps="2"
       helper_size="0"
       apply_no_weight="true"
       apply_with_weight="true"
       only_selected="false" />
    <inkscape:path-effect
       effect="bspline"
       id="path-effect670"
       is_visible="true"
       lpeversion="1"
       weight="33.333333"
       steps="2"
       helper_size="0"
       apply_no_weight="true"
       apply_with_weight="true"
       only_selected="false" />
    <inkscape:path-effect
       effect="skeletal"
       id="path-effect664"
       is_visible="true"
       lpeversion="1"
       pattern="M 0,18.867925 C 0,8.4528302 8.4528302,0 18.867925,0 c 10.415094,0 18.867924,8.4528302 18.867924,18.867925 0,10.415094 -8.45283,18.867924 -18.867924,18.867924 C 8.4528302,37.735849 0,29.283019 0,18.867925 Z"
       copytype="single_stretched"
       prop_scale="1"
       scale_y_rel="false"
       spacing="0"
       normal_offset="0"
       tang_offset="0"
       prop_units="false"
       vertical_pattern="false"
       hide_knot="false"
       fuse_tolerance="0" />
    <inkscape:path-effect
       effect="spiro"
       id="path-effect465"
       is_visible="true"
       lpeversion="1" />
    <inkscape:path-effect
       effect="spiro"
       id="path-effect461"
       is_visible="true"
       lpeversion="1" />
  </defs>
  <g
     inkscape:label="Layer 1"
     inkscape:groupmode="layer"
     id="layer1">
    <path
       style="fill:#ffffff;fill-opacity:1;stroke:none;stroke-width:14.9669;stroke-linecap:butt;stroke-linejoin:round;stroke-dasharray:none;stroke-opacity:1"
       d="M 280.07422,280.47852 396.84961,427.70117 514.88282,280.47852 397.47852,255.11328 Z"
       id="path4504"
       inkscape:export-filename="logo.png"
       inkscape:export-xdpi="96"
       inkscape:export-ydpi="96" />
    <g
       id="g4739"
       transform="translate(2.4527386e-6,-10.000043)">
      <path
         id="rect3999"
         style="fill:#ff9955;fill-opacity:1;stroke:none;stroke-width:14.9669;stroke-linecap:butt;stroke-linejoin:round;stroke-dasharray:none;stroke-opacity:1"
         d="M 162.66797,82.525391 280.07422,280.47852 c 4.89198,3.0671 9.78385,6.13513 14.67578,9.15429 2.44597,1.50958 4.89192,3.0067 7.33789,4.48633 2.44596,1.47963 4.89194,2.94122 7.33789,4.37891 2.44596,1.43768 4.89196,2.85257 7.33789,4.23633 2.44596,1.38378 4.89195,2.73681 7.33789,4.05468 2.44595,1.31787 4.89196,2.59986 7.3379,3.83985 2.44593,1.24 4.89195,2.43775 7.33789,3.58789 2.44592,1.15013 4.89196,2.25249 7.33789,3.30078 2.44593,1.0483 4.89196,2.04209 7.33789,2.97656 1.22296,0.46724 2.445,0.91894 3.66797,1.35547 1.22296,0.43654 2.44695,0.85933 3.66992,1.26367 1.22297,0.40434 2.44501,0.79147 3.66797,1.16211 1.22296,0.37064 2.44696,0.7251 3.66992,1.06055 1.22296,0.33545 2.44501,0.65242 3.66797,0.95117 1.22296,0.29876 2.44695,0.57732 3.66992,0.83789 1.22295,0.26056 2.44501,0.50178 3.66797,0.72266 1.22296,0.22088 2.44696,0.42186 3.66992,0.60156 1.22296,0.1797 2.44501,0.3376 3.66797,0.47461 1.22296,0.13702 2.44697,0.25286 3.66992,0.3457 1.22296,0.0928 2.44501,0.16378 3.66797,0.21094 1.22296,0.0472 2.44501,0.0703 3.66797,0.0703 1.22296,-2e-5 2.44697,-0.0231 3.66992,-0.0703 1.22296,-0.0472 2.44502,-0.11807 3.66797,-0.21094 1.22296,-0.0929 2.44696,-0.20866 3.66992,-0.3457 1.22295,-0.13704 2.44502,-0.29489 3.66797,-0.47461 1.22296,-0.17972 2.44697,-0.38066 3.66992,-0.60156 1.22295,-0.2209 2.44502,-0.46208 3.66797,-0.72266 1.22295,-0.26059 2.44697,-0.54107 3.66992,-0.83984 1.22296,-0.29877 2.44501,-0.61571 3.66797,-0.95117 1.22295,-0.33546 2.44696,-0.68795 3.66992,-1.0586 1.22295,-0.37065 2.44503,-0.75972 3.66797,-1.16406 1.22296,-0.40435 2.44501,-0.82518 3.66797,-1.26172 1.22294,-0.43655 2.44698,-0.88823 3.66992,-1.35547 2.4459,-0.93449 4.892,-1.92826 7.33789,-2.97656 2.4459,-1.0483 4.892,-2.15065 7.33789,-3.30078 2.44589,-1.15013 4.89201,-2.34791 7.33789,-3.58789 2.44591,-1.23998 4.892,-2.522 7.33789,-3.83985 2.4459,-1.31785 4.89005,-2.67289 7.33594,-4.05664 2.44591,-1.38373 4.89201,-2.79672 7.33789,-4.23437 2.44591,-1.43767 4.89199,-2.89932 7.33789,-4.37891 2.4459,-1.4796 4.89199,-2.97679 7.33789,-4.48633 4.89187,-3.01906 9.78394,-6.08727 14.67579,-9.15429 L 632.28907,82.525391 397.47852,206.8711 Z m 352.21485,197.953129 -76.03321,94.83594 c 0.67585,-0.39722 1.35179,-0.78364 2.02735,-1.19532 2.44589,-1.49048 4.89199,-3.07604 7.33789,-4.74804 2.44589,-1.67201 4.89199,-3.42924 7.33789,-5.26368 2.44589,-1.83442 4.89199,-3.7449 7.33789,-5.72265 2.4459,-1.97775 4.892,-4.02305 7.33789,-6.125 2.44591,-2.10195 4.89004,-4.2617 7.33594,-6.46875 2.44589,-2.20704 4.89199,-4.46088 7.33789,-6.75391 2.44589,-2.29305 4.89198,-4.62445 7.33789,-6.98437 2.4459,-2.35991 4.89198,-4.74857 7.33789,-7.15625 4.89182,-4.81539 15.30469,-44.41797 15.30469,-44.41797 z m -76.03321,94.83594 c -0.54762,0.32185 -1.09519,0.65709 -1.64258,0.96875 -1.22295,0.69626 -2.44502,1.36679 -3.66796,2.01171 -1.22295,0.64493 -2.44502,1.26429 -3.66797,1.85547 -1.22295,0.59118 -2.44698,1.15441 -3.66993,1.68946 -1.22294,0.53505 -2.44502,1.04104 -3.66796,1.51757 -1.22296,0.47654 -2.44698,0.92422 -3.66993,1.33985 -1.22295,0.41562 -2.44502,0.80001 -3.66796,1.15234 -1.22296,0.35233 -2.44698,0.67234 -3.66993,0.95899 -1.22296,0.28664 -2.44502,0.53923 -3.66797,0.75781 -1.22295,0.21857 -2.44696,0.40267 -3.66992,0.55078 -1.22295,0.14812 -2.44502,0.26067 -3.66797,0.33594 -1.22296,0.0753 -2.44697,0.11325 -3.66992,0.11328 -1.22297,3e-5 -2.44501,-0.0381 -3.66797,-0.11328 -1.22296,-0.0752 -2.44502,-0.18787 -3.66797,-0.33594 -1.22295,-0.14807 -2.44696,-0.33225 -3.66992,-0.55078 -1.22296,-0.21854 -2.445,-0.4712 -3.66797,-0.75781 -1.22296,-0.28662 -2.44695,-0.60669 -3.66992,-0.95899 -1.22296,-0.3523 -2.44502,-0.73674 -3.66797,-1.15234 -1.22296,-0.4156 -2.44697,-0.86138 -3.66992,-1.33789 -1.22297,-0.47651 -2.445,-0.98255 -3.66797,-1.51758 -1.22296,-0.53503 -2.44696,-1.10024 -3.66992,-1.69141 -1.22296,-0.59116 -2.445,-1.2086 -3.66797,-1.85351 -1.22296,-0.64492 -2.44695,-1.3174 -3.66992,-2.01367 -0.26709,-0.15206 -0.53377,-0.31828 -0.80078,-0.47266 l 41.1582,51.89062 z m -83.1582,0.49609 -75.61719,-95.33203 c 1.4031,5.89684 9.15494,39.60246 14.04688,44.41797 2.44596,2.40774 4.89192,4.79627 7.33789,7.15625 2.44595,2.35996 4.89193,4.69129 7.33789,6.98437 2.44595,2.29309 4.89194,4.54878 7.33789,6.75586 2.44595,2.20709 4.89194,4.36482 7.33789,6.4668 2.44595,2.10199 4.89195,4.14723 7.33789,6.125 2.44594,1.97777 4.89196,3.88821 7.33789,5.72265 2.44594,1.83444 4.89196,3.59362 7.33789,5.26563 2.44594,1.67202 4.89195,3.25758 7.33789,4.74805 0.95587,0.58247 1.91156,1.13692 2.86719,1.68945 z" />
      <path
         id="rect3999-9"
         style="fill:none;fill-opacity:1;stroke:#000000;stroke-width:1.88976;stroke-linecap:butt;stroke-linejoin:round;stroke-dasharray:none;stroke-dashoffset:0;stroke-opacity:1"
         d="m 162.66797,92.52539 117.40625,197.95313 c 4.89198,3.0671 9.78385,6.13513 14.67578,9.15429 2.44597,1.50958 4.89192,3.0067 7.33789,4.48633 2.44596,1.47963 4.89194,2.94122 7.33789,4.37891 2.44596,1.43768 4.89196,2.85257 7.33789,4.23633 2.44596,1.38378 4.89195,2.73681 7.33789,4.05468 2.44595,1.31787 4.89196,2.59986 7.3379,3.83985 2.44593,1.24 4.89195,2.43775 7.33789,3.58789 2.44592,1.15013 4.89196,2.25249 7.33789,3.30078 2.44593,1.0483 4.89196,2.04209 7.33789,2.97656 1.22296,0.46724 2.445,0.91894 3.66797,1.35547 1.22296,0.43654 2.44695,0.85933 3.66992,1.26367 1.22297,0.40434 2.44501,0.79147 3.66797,1.16211 1.22296,0.37064 2.44696,0.7251 3.66992,1.06055 1.22296,0.33545 2.44501,0.65242 3.66797,0.95117 1.22296,0.29876 2.44695,0.57732 3.66992,0.83789 1.22295,0.26056 2.44501,0.50178 3.66797,0.72266 1.22296,0.22088 2.44696,0.42186 3.66992,0.60156 1.22296,0.1797 2.44501,0.3376 3.66797,0.47461 1.22296,0.13702 2.44697,0.25286 3.66992,0.3457 1.22296,0.0928 2.44501,0.16378 3.66797,0.21094 1.22296,0.0472 2.44501,0.0703 3.66797,0.0703 1.22296,-2e-5 2.44697,-0.0231 3.66992,-0.0703 1.22296,-0.0472 2.44502,-0.11807 3.66797,-0.21094 1.22296,-0.0929 2.44696,-0.20866 3.66992,-0.3457 1.22295,-0.13704 2.44502,-0.29489 3.66797,-0.47461 1.22296,-0.17972 2.44697,-0.38066 3.66992,-0.60156 1.22295,-0.2209 2.44502,-0.46208 3.66797,-0.72266 1.22295,-0.26059 2.44697,-0.54107 3.66992,-0.83984 1.22296,-0.29877 2.44501,-0.61571 3.66797,-0.95117 1.22295,-0.33546 2.44696,-0.68795 3.66992,-1.0586 1.22295,-0.37065 2.44503,-0.75972 3.66797,-1.16406 1.22296,-0.40435 2.44501,-0.82518 3.66797,-1.26172 1.22294,-0.43655 2.44698,-0.88823 3.66992,-1.35547 2.4459,-0.93449 4.892,-1.92826 7.33789,-2.97656 2.4459,-1.0483 4.892,-2.15065 7.33789,-3.30078 2.44589,-1.15013 4.89201,-2.34791 7.33789,-3.58789 2.44591,-1.23998 4.892,-2.522 7.33789,-3.83985 2.4459,-1.31785 4.89005,-2.67289 7.33594,-4.05664 2.44591,-1.38373 4.89201,-2.79672 7.33789,-4.23437 2.44591,-1.43767 4.89199,-2.89932 7.33789,-4.37891 2.4459,-1.4796 4.89199,-2.97679 7.33789,-4.48633 4.89187,-3.01906 9.78394,-6.08727 14.67579,-9.15429 L 632.28907,92.52539 397.47852,216.8711 Z m 352.21485,197.95313 -76.03321,94.83594 c 0.67585,-0.39722 1.35179,-0.78364 2.02735,-1.19532 2.44589,-1.49048 4.89199,-3.07604 7.33789,-4.74804 2.44589,-1.67201 4.89199,-3.42924 7.33789,-5.26368 2.44589,-1.83442 4.89199,-3.7449 7.33789,-5.72265 2.4459,-1.97775 4.892,-4.02305 7.33789,-6.125 2.44591,-2.10195 4.89004,-4.2617 7.33594,-6.46875 2.44589,-2.20704 4.89199,-4.46088 7.33789,-6.75391 2.44589,-2.29305 4.89198,-4.62445 7.33789,-6.98437 2.4459,-2.35991 4.89198,-4.74857 7.33789,-7.15625 4.89182,-4.81539 15.30469,-44.41797 15.30469,-44.41797 z m -76.03321,94.83594 c -0.54762,0.32185 -1.09519,0.65709 -1.64258,0.96875 -1.22295,0.69626 -2.44502,1.36679 -3.66796,2.01171 -1.22295,0.64493 -2.44502,1.26429 -3.66797,1.85547 -1.22295,0.59118 -2.44698,1.15441 -3.66993,1.68946 -1.22294,0.53505 -2.44502,1.04104 -3.66796,1.51757 -1.22296,0.47654 -2.44698,0.92422 -3.66993,1.33985 -1.22295,0.41562 -2.44502,0.80001 -3.66796,1.15234 -1.22296,0.35233 -2.44698,0.67234 -3.66993,0.95899 -1.22296,0.28664 -2.44502,0.53923 -3.66797,0.75781 -1.22295,0.21857 -2.44696,0.40267 -3.66992,0.55078 -1.22295,0.14812 -2.44502,0.26067 -3.66797,0.33594 -1.22296,0.0753 -2.44697,0.11325 -3.66992,0.11328 -1.22297,3e-5 -2.44501,-0.0381 -3.66797,-0.11328 -1.22296,-0.0752 -2.44502,-0.18787 -3.66797,-0.33594 -1.22295,-0.14807 -2.44696,-0.33225 -3.66992,-0.55078 -1.22296,-0.21854 -2.445,-0.4712 -3.66797,-0.75781 -1.22296,-0.28662 -2.44695,-0.60669 -3.66992,-0.95899 -1.22296,-0.3523 -2.44502,-0.73674 -3.66797,-1.15234 -1.22296,-0.4156 -2.44697,-0.86138 -3.66992,-1.33789 -1.22297,-0.47651 -2.445,-0.98255 -3.66797,-1.51758 -1.22296,-0.53503 -2.44696,-1.10024 -3.66992,-1.69141 -1.22296,-0.59116 -2.445,-1.2086 -3.66797,-1.85351 -1.22296,-0.64492 -2.44695,-1.3174 -3.66992,-2.01367 -0.26709,-0.15206 -0.53377,-0.31828 -0.80078,-0.47266 l 41.1582,51.89062 z m -83.1582,0.49609 -75.61719,-95.33203 c 1.4031,5.89684 9.15494,39.60246 14.04688,44.41797 2.44596,2.40774 4.89192,4.79627 7.33789,7.15625 2.44595,2.35996 4.89193,4.69129 7.33789,6.98437 2.44595,2.29309 4.89194,4.54878 7.33789,6.75586 2.44595,2.20709 4.89194,4.36482 7.33789,6.4668 2.44595,2.10199 4.89195,4.14723 7.33789,6.125 2.44594,1.97777 4.89196,3.88821 7.33789,5.72265 2.44594,1.83444 4.89196,3.59362 7.33789,5.26563 2.44594,1.67202 4.89195,3.25758 7.33789,4.74805 0.95587,0.58247 1.91156,1.13692 2.86719,1.68945 z" />
    </g>
    <path
       style="fill:none;fill-opacity:1;stroke:none;stroke-width:14.9669;stroke-linecap:butt;stroke-linejoin:round;stroke-dasharray:none;stroke-opacity:1"
       d="M 631.66015,-72.5293 C 553.38983,38.353384 475.11965,149.23587 396.84961,260.11816"
       id="path4349"
       inkscape:original-d="M 631.66015,-72.5293 C 553.39097,38.354188 475.12079,149.23668 396.84961,260.11816"
       inkscape:path-effect="#path-effect4351" />
    <text
       xml:space="preserve"
       style="font-weight:bold;font-size:139.047px;line-height:0em;font-family:'Space Grotesk';-inkscape-font-specification:'Space Grotesk, Bold';letter-spacing:0px;white-space:pre;inline-size:598.932;display:inline;fill:#000000;fill-opacity:1;stroke:none;stroke-width:11.2966;stroke-linecap:butt;stroke-linejoin:round;stroke-dasharray:none;stroke-opacity:1"
       x="141.00391"
       y="317.43631"
       id="text3482"
       transform="matrix(0.33457148,0,0,0.33457148,262.2613,379.43904)"><tspan
         x="141.00391"
         y="317.43631"
         id="tspan4825"><tspan
           style="font-weight:500;font-family:'Jones*';-inkscape-font-specification:'Jones*, Medium'"
           id="tspan4823">Fenneq</tspan></tspan></text>
  </g>
</svg>
